<svg width="25" height="22" viewBox="0 0 25 22" fill="none" xmlns="http://www.w3.org/2000/svg">
<path fill-rule="evenodd" clip-rule="evenodd" d="M6.0725 0.0625C2.64762 0.0625 -0.0670728 2.95216 0.146565 6.37037L0.771565 16.3704C0.830559 17.3143 1.10858 18.1974 1.55483 18.9692C2.58357 20.7486 4.50817 21.9375 6.6975 21.9375H17.3701C19.5572 21.9375 21.4832 20.7503 22.5128 18.9692C22.5389 18.924 22.5612 18.8767 22.5795 18.8278L23.9786 15.0786C24.3871 13.984 24.2469 12.8565 23.7321 11.9489C23.7692 11.848 23.7895 11.7388 23.7895 11.625V9.96118C24.0237 6.6404 21.3925 3.8125 18.0582 3.8125H15.1252C14.6075 3.8125 14.1877 3.39277 14.1877 2.875C14.1877 1.3217 12.9285 0.0625 11.3752 0.0625H6.0725ZM15.7759 10.0625C15.3602 10.0625 15.0439 9.6892 15.1123 9.27912C15.3711 7.72618 14.1735 6.3125 12.5992 6.3125H8.6231C5.78086 6.3125 3.3403 8.33371 2.8107 11.1262L2.51407 12.6902L2.44155 13.0316L2.01791 6.25341C1.87174 3.91464 3.72917 1.9375 6.0725 1.9375H11.3752C11.893 1.9375 12.3127 2.35723 12.3127 2.875C12.3127 4.4283 13.5719 5.6875 15.1252 5.6875H18.0582C20.3128 5.6875 22.0902 7.60688 21.9173 9.85483C21.9155 9.87875 21.9145 9.90274 21.9145 9.92673V10.3396C21.4823 10.1617 21.0051 10.0625 20.4974 10.0625H15.7759Z" fill="#233A66"/>
</svg>
