<svg width="26" height="26" viewBox="0 0 26 26" fill="none" xmlns="http://www.w3.org/2000/svg">
<path d="M18.1283 17.1541L18.1244 17.159L18.1296 17.153L18.1308 17.1513L18.1283 17.1541Z" fill="#233A66"/>
<path fill-rule="evenodd" clip-rule="evenodd" d="M13 25.5C19.9036 25.5 25.5 19.9036 25.5 13C25.5 6.09644 19.9036 0.5 13 0.5C6.09644 0.5 0.5 6.09644 0.5 13C0.5 13.3155 0.511686 13.6282 0.53465 13.9378H1.74999C3.73881 13.9378 5.35295 15.2055 6.26656 16.7998C7.18092 18.3954 7.4922 20.4725 6.74912 22.3394C6.65821 22.5795 6.46042 23.0218 6.17462 23.4738C8.13695 24.7552 10.4815 25.5 13 25.5ZM24.9832 9.43165C24.8579 9.44629 24.7276 9.43572 24.5993 9.39623L19.3782 7.7899C18.8278 7.62057 18.3409 7.31038 17.922 6.98717C17.5159 6.67385 17.1234 6.30755 16.769 5.97676L16.7351 5.94515C16.3575 5.59276 16.0204 5.28049 15.686 5.02637C15.3512 4.77199 15.0718 4.61785 14.8298 4.54815C14.1469 4.35155 13.3047 4.20902 12.3863 4.0536C12.2441 4.02954 12.1 4.00515 11.9544 3.98022C10.9323 3.80513 9.82052 3.60015 8.94479 3.26241L6.4806 2.52315C6.41592 2.50375 6.35488 2.47798 6.29798 2.44675C7.06049 1.96149 7.87914 1.55661 8.74201 1.24402L9.55673 1.48844L9.59302 1.5027C10.2656 1.76712 11.2032 1.94923 12.271 2.13213C12.4077 2.15555 12.5466 2.17899 12.6869 2.20266C13.5922 2.35539 14.5547 2.51779 15.3485 2.74635C15.9057 2.90678 16.3978 3.21237 16.8204 3.53346C17.2432 3.85479 17.6493 4.23369 18.0143 4.57428L18.0158 4.57561C18.3946 4.9291 18.7317 5.2437 19.0674 5.50269C19.4037 5.76217 19.685 5.92256 19.9296 5.99779L24.1212 7.28737C24.4716 7.96817 24.7613 8.68532 24.9832 9.43165ZM8.65169 6.75C7.34174 6.75 6.25423 8.33887 5.72217 9.43526C5.58332 9.7214 5.52818 10.0386 5.52029 10.3566C5.51752 10.4683 5.5142 10.5737 5.51106 10.6735C5.47286 11.8847 5.46069 12.2707 6.77669 13C8.34594 13.8696 8.62499 13.8916 9.24999 13.8916C9.8211 13.8916 10.9502 14.7132 10.5267 16.125C9.90169 18.2083 11.1517 22.375 13.0267 21.125C14.892 19.8814 15.3816 16.967 15.6853 15.1593C15.8375 14.2531 15.943 13.625 16.1517 13.625C16.5361 13.625 17.1915 12.7897 17.6633 12.0824C17.9111 11.7109 18.0773 11.2187 17.7823 10.8833C17.5954 10.6709 17.2817 10.5 16.7767 10.5C15.9415 10.5 15.0481 9.62797 14.5336 8.97644C14.3575 8.75345 14.2767 8.47338 14.2767 8.18923C14.2767 7.39437 13.6323 6.75 12.8375 6.75H8.65169ZM19.097 15.8695C19.5145 16.0221 19.7579 16.4405 19.7059 16.8635C19.7824 16.9894 19.9222 17.2608 19.8906 17.6172C19.8544 18.0237 19.6207 18.3148 19.438 18.4974C19.2572 18.6783 19.1262 18.8668 19.0374 19.0259C18.9932 19.105 18.9612 19.1738 18.9396 19.2265C18.921 19.2722 18.9131 19.2984 18.9116 19.3034C18.7907 19.8069 18.2845 20.117 17.7811 19.9961C17.2776 19.8752 16.9675 19.369 17.0884 18.8656C17.1665 18.5406 17.4103 17.9738 17.8807 17.4223C17.8759 17.409 17.8712 17.3955 17.8667 17.3817C17.7674 17.0789 17.7752 16.7546 17.8946 16.4281C18.0724 15.9418 18.6107 15.6917 19.097 15.8695Z" fill="#233A66"/>
<path d="M4.67766 22.3269C4.82677 22.0703 4.94147 21.8198 4.99726 21.6711L5.00083 21.6616L5.00461 21.6521C5.50689 20.3964 5.31767 18.9151 4.63974 17.7321C3.95957 16.5451 2.88618 15.8128 1.74999 15.8128H0.817748C1.40676 18.3742 2.78281 20.635 4.67766 22.3269Z" fill="#233A66"/>
</svg>
