<svg width="26" height="26" viewBox="0 0 26 26" fill="none" xmlns="http://www.w3.org/2000/svg">
<path d="M11.3293 25.3116C9.31984 25.0813 7.55548 24.4433 6.29077 23.5487C4.22871 22.2345 2.5779 20.3322 1.57456 18.0781C1.3512 17.5763 1.65167 17.0112 2.18221 16.869C2.65463 16.7424 3.1414 16.9999 3.3462 17.444C3.63997 18.0811 3.99496 18.6842 4.40362 19.2457C5.17167 16.8457 8.72835 15.031 12.9999 15.031C17.2716 15.031 20.8283 16.8458 21.5963 19.2458C22.8723 17.4927 23.625 15.3342 23.625 13C23.625 7.13197 18.868 2.375 13 2.375C12.67 2.375 12.3436 2.39004 12.0213 2.41948C11.5347 2.46392 11.0691 2.17108 10.9426 1.69911C10.8004 1.16821 11.1401 0.625236 11.6867 0.568161C12.1183 0.523099 12.5565 0.5 13 0.5C19.9036 0.5 25.5 6.09644 25.5 13C25.5 17.4351 23.1902 21.3307 19.708 23.5495C19.0604 24.0074 18.2819 24.398 17.4066 24.7011C16.0362 25.2175 14.5511 25.5 13 25.5C12.5565 25.5 12.1183 25.4769 11.6867 25.4318C11.5541 25.418 11.4336 25.3755 11.3293 25.3116Z" fill="#233A66"/>
<path d="M0.568155 14.3132C0.625228 14.8599 1.1682 15.1996 1.69911 15.0573C2.17107 14.9309 2.46391 14.4653 2.41947 13.9787C2.39004 13.6564 2.375 13.33 2.375 13C2.375 12.67 2.39004 12.3435 2.41948 12.0212C2.46393 11.5346 2.17109 11.069 1.69912 10.9425C1.16822 10.8003 0.62525 11.14 0.568171 11.6867C0.523103 12.1183 0.5 12.5564 0.5 13C0.5 13.4435 0.523098 13.8816 0.568155 14.3132Z" fill="#233A66"/>
<path d="M1.5746 7.9218C1.35123 8.4236 1.65172 8.98868 2.18227 9.13084C2.65469 9.25743 3.14145 9.00002 3.34624 8.55588C3.62112 7.95977 3.94958 7.39346 4.32546 6.86312C4.60829 6.46406 4.58796 5.91371 4.24209 5.56784C3.85394 5.1797 3.21477 5.20184 2.89147 5.64545C2.37664 6.35184 1.93407 7.11424 1.5746 7.9218Z" fill="#233A66"/>
<path d="M5.64554 2.8914C5.20192 3.2147 5.17978 3.85388 5.56793 4.24203C5.91379 4.58789 6.46414 4.60823 6.8632 4.3254C7.39354 3.94953 7.95985 3.62108 8.55596 3.34621C9.0001 3.14141 9.25751 2.65465 9.13093 2.18224C8.98877 1.65169 8.42369 1.35119 7.92189 1.57456C7.11433 1.93402 6.35193 2.37659 5.64554 2.8914Z" fill="#233A66"/>
<path d="M18.4686 8.46871C18.4686 11.489 16.0202 13.9374 12.9999 13.9374C9.97959 13.9374 7.53117 11.489 7.53117 8.46871C7.53117 5.44843 9.97959 3 12.9999 3C16.0202 3 18.4686 5.44843 18.4686 8.46871Z" fill="#233A66"/>
</svg>
