<svg width="24" height="22" viewBox="0 0 24 22" fill="none" xmlns="http://www.w3.org/2000/svg">
<path fill-rule="evenodd" clip-rule="evenodd" d="M18.25 0H5.75C2.98858 0 0.75 2.23858 0.75 5V12.957C0.75 15.466 2.78398 17.5 5.29303 17.5C6.39345 17.5 7.45647 17.8994 8.28463 18.624L10.3537 20.4345C11.2963 21.2593 12.7037 21.2593 13.6463 20.4345L15.7154 18.6241C16.5435 17.8994 17.6065 17.5 18.707 17.5C21.216 17.5 23.25 15.466 23.25 12.957V5C23.25 2.23858 21.0114 0 18.25 0ZM6.0625 6.25C6.0625 5.73223 6.48223 5.3125 7 5.3125H15.75C16.2678 5.3125 16.6875 5.73223 16.6875 6.25C16.6875 6.76777 16.2678 7.1875 15.75 7.1875H7C6.48223 7.1875 6.0625 6.76777 6.0625 6.25ZM7 10.3125C6.48223 10.3125 6.0625 10.7322 6.0625 11.25C6.0625 11.7678 6.48223 12.1875 7 12.1875H17C17.5178 12.1875 17.9375 11.7678 17.9375 11.25C17.9375 10.7322 17.5178 10.3125 17 10.3125H7Z" fill="#233A66"/>
</svg>
