<svg width="196" height="72" viewBox="0 0 196 72" fill="none" xmlns="http://www.w3.org/2000/svg">
<path d="M60.0271 20.2C60.5605 19.8667 61.1605 19.7 61.8271 19.7C62.4938 19.7 62.9105 20.0833 63.0771 20.85C63.1105 24.7167 63.1771 30.5 63.2771 38.2C63.2771 42.9 63.1438 46.8833 62.8771 50.15C62.8105 50.65 62.4938 51.1 61.9271 51.5C61.3938 51.8667 60.8438 52.05 60.2771 52.05C59.3438 52.05 58.8771 51.5667 58.8771 50.6C59.2105 47.2667 59.3771 43.1333 59.3771 38.2L59.0771 21.4C59.2105 20.9333 59.5271 20.5333 60.0271 20.2ZM71.6447 50.45L71.0947 30.15C71.0947 29.5167 71.3114 29 71.7447 28.6C72.1781 28.2 72.6114 28 73.0447 28C74.1114 28 74.7281 28.45 74.8947 29.35C75.0281 30.25 75.0947 31.1833 75.0947 32.15C76.8947 29.7833 79.1447 28.6 81.8447 28.6C85.9781 28.6 88.0447 33.3167 88.0447 42.75C88.0447 43.6167 88.0447 44.9333 88.0447 46.7C88.0447 48.4333 87.9447 49.7 87.7447 50.5C87.5114 51.5 86.7947 52 85.5947 52C84.7947 52 84.3947 51.4667 84.3947 50.4L84.4447 47.6C84.4447 43.7333 84.3114 41.1 84.0447 39.7C83.8114 38.2667 83.5781 37.1333 83.3447 36.3C82.7781 34.5 81.8614 33.6 80.5947 33.6C78.9281 33.6 77.7614 34.2 77.0947 35.4C76.3614 36.7 75.9281 38.2333 75.7947 40C75.5614 43.1 75.4447 46.3833 75.4447 49.85C75.4447 50.5167 75.1947 51.05 74.6947 51.45C74.1947 51.85 73.5947 52.05 72.8947 52.05C72.0614 52.05 71.6447 51.5167 71.6447 50.45ZM108.002 18.8C109.602 18.8 111.185 19.2 112.752 20C114.352 20.8 115.152 21.7 115.152 22.7C115.152 24.2333 114.519 25 113.252 25C112.785 25 111.969 24.7 110.802 24.1C109.635 23.5 108.652 23.2 107.852 23.2C104.985 23.2 102.585 24.4833 100.652 27.05C98.7521 29.6167 97.8021 32.8833 97.8021 36.85C97.8021 39.8167 98.4521 42.4167 99.7521 44.65C101.052 46.8833 102.585 48 104.352 48C106.152 48 107.552 47.4167 108.552 46.25C109.585 45.05 110.102 43.7 110.102 42.2C110.102 41.3667 110.035 40.6833 109.902 40.15C109.802 39.5833 109.519 39.0833 109.052 38.65C108.585 38.1833 107.969 37.95 107.202 37.95C106.435 37.95 105.702 37.7833 105.002 37.45C104.335 37.1167 104.002 36.6667 104.002 36.1C104.002 35.5333 104.169 35 104.502 34.5C104.835 34 105.285 33.7 105.852 33.6C108.119 33.6 109.635 33.8333 110.402 34.3C111.202 34.7667 111.802 35.15 112.202 35.45C112.602 35.75 112.935 36.25 113.202 36.95C113.469 37.65 113.669 38.2333 113.802 38.7C113.969 39.1667 114.085 39.9167 114.152 40.95C114.219 42.6833 114.252 44.7167 114.252 47.05C114.252 49.35 114.085 50.7667 113.752 51.3C113.452 51.7333 112.952 51.9667 112.252 52C111.552 52 111.069 51.85 110.802 51.55C110.535 51.25 110.369 50.5833 110.302 49.55C109.502 50.25 108.485 50.85 107.252 51.35C106.052 51.8167 104.985 52.05 104.052 52.05C101.119 52.05 98.6521 50.5 96.6521 47.4C94.6521 44.2667 93.6521 40.5 93.6521 36.1C93.6521 33.7667 94.0355 31.4833 94.8021 29.25C95.5688 26.9833 96.6021 25.0833 97.9021 23.55C100.635 20.3833 104.002 18.8 108.002 18.8ZM118.226 19.65C118.326 18.3833 118.526 17.5667 118.826 17.2C119.159 16.8 119.676 16.6 120.376 16.6C121.809 16.6 122.526 17.1833 122.526 18.35C122.526 19.25 122.442 21.6 122.276 25.4C122.142 29.2 122.076 32.6 122.076 35.6C122.076 38.6 122.192 41.0167 122.426 42.85C122.826 46.05 123.392 47.65 124.126 47.65C124.859 47.65 125.409 47.1333 125.776 46.1C125.942 45.7 126.209 45.35 126.576 45.05C126.942 44.7167 127.409 44.55 127.976 44.55C129.142 44.55 129.726 45.5333 129.726 47.5C129.726 48.5667 129.142 49.6333 127.976 50.7C126.842 51.7333 125.709 52.25 124.576 52.25C123.442 52.25 122.526 52.0667 121.826 51.7C121.159 51.3 120.609 50.7167 120.176 49.95C119.776 49.1833 119.442 48.45 119.176 47.75C118.942 47.0167 118.776 46.1333 118.676 45.1C118.476 43.4333 118.326 40.7667 118.226 37.1C118.159 33.4 118.126 29.8833 118.126 26.55C118.126 23.1833 118.159 20.8833 118.226 19.65ZM141.507 28.7C143.907 28.7 145.874 29.85 147.407 32.15C148.974 34.45 149.757 37.2167 149.757 40.45C149.757 43.65 148.957 46.3833 147.357 48.65C145.79 50.9167 143.69 52.05 141.057 52.05C138.457 52.05 136.357 50.9 134.757 48.6C133.157 46.2667 132.357 43.6833 132.357 40.85C132.357 37.2167 133.09 34.3167 134.557 32.15C136.124 29.85 138.44 28.7 141.507 28.7ZM140.907 32.8C139.507 32.8 138.357 33.5333 137.457 35C136.557 36.4667 136.107 38.0167 136.107 39.65C136.107 42.1833 136.607 44.1167 137.607 45.45C138.607 46.7833 139.74 47.45 141.007 47.45C143.274 47.45 144.724 46.4667 145.357 44.5C145.624 43.5667 145.757 42.4 145.757 41C145.757 35.5333 144.14 32.8 140.907 32.8Z" fill="black"/>
<circle cx="172.5" cy="37.5" r="3.5" fill="black"/>
<circle cx="33.5" cy="37.5" r="3.5" fill="black"/>
<path d="M4.31325 60.152C4.84925 60.152 5.44125 60.256 6.08925 60.464C6.23325 60.576 6.30525 60.7 6.30525 60.836C6.30525 60.964 6.23725 61.08 6.10125 61.184C5.97325 61.28 5.82525 61.328 5.65725 61.328C5.22525 61.216 4.82125 61.16 4.44525 61.16C3.58125 61.16 2.92525 61.416 2.47725 61.928C2.02925 62.44 1.80525 63.2 1.80525 64.208C1.80525 65.216 2.06925 66.004 2.59725 66.572C2.86925 66.868 3.19325 67.016 3.56925 67.016C3.94525 67.016 4.54525 66.816 5.36925 66.416C5.65725 66.28 5.84925 66.212 5.94525 66.212C6.15325 66.212 6.25725 66.32 6.25725 66.536C6.25725 66.752 6.15725 66.932 5.95725 67.076C5.26925 67.436 4.73325 67.68 4.34925 67.808C3.96525 67.928 3.63325 67.988 3.35325 67.988C2.77725 67.988 2.28525 67.776 1.87725 67.352C1.14925 66.568 0.78525 65.5 0.78525 64.148C0.78525 62.788 1.12925 61.784 1.81725 61.136C2.51325 60.48 3.34525 60.152 4.31325 60.152ZM11.4355 62.408C12.0115 62.408 12.4835 62.684 12.8515 63.236C13.2275 63.788 13.4155 64.452 13.4155 65.228C13.4155 65.996 13.2235 66.652 12.8395 67.196C12.4635 67.74 11.9595 68.012 11.3275 68.012C10.7035 68.012 10.1995 67.736 9.81547 67.184C9.43147 66.624 9.23947 66.004 9.23947 65.324C9.23947 64.452 9.41547 63.756 9.76747 63.236C10.1435 62.684 10.6995 62.408 11.4355 62.408ZM11.2915 63.392C10.9555 63.392 10.6795 63.568 10.4635 63.92C10.2475 64.272 10.1395 64.644 10.1395 65.036C10.1395 65.644 10.2595 66.108 10.4995 66.428C10.7395 66.748 11.0115 66.908 11.3155 66.908C11.8595 66.908 12.2075 66.672 12.3595 66.2C12.4235 65.976 12.4555 65.696 12.4555 65.36C12.4555 64.048 12.0675 63.392 11.2915 63.392ZM16.6073 67.628L16.4753 62.756C16.4753 62.604 16.5273 62.48 16.6313 62.384C16.7353 62.288 16.8393 62.24 16.9433 62.24C17.1993 62.24 17.3473 62.348 17.3873 62.564C17.4193 62.78 17.4353 63.004 17.4353 63.236C17.8673 62.668 18.4073 62.384 19.0553 62.384C20.0473 62.384 20.5433 63.516 20.5433 65.78C20.5433 65.988 20.5433 66.304 20.5433 66.728C20.5433 67.144 20.5193 67.448 20.4713 67.64C20.4153 67.88 20.2433 68 19.9553 68C19.7633 68 19.6673 67.872 19.6673 67.616L19.6793 66.944C19.6793 66.016 19.6473 65.384 19.5833 65.048C19.5273 64.704 19.4713 64.432 19.4153 64.232C19.2793 63.8 19.0593 63.584 18.7553 63.584C18.3553 63.584 18.0753 63.728 17.9153 64.016C17.7393 64.328 17.6353 64.696 17.6033 65.12C17.5473 65.864 17.5193 66.652 17.5193 67.484C17.5193 67.644 17.4593 67.772 17.3393 67.868C17.2193 67.964 17.0753 68.012 16.9073 68.012C16.7073 68.012 16.6073 67.884 16.6073 67.628ZM24.0331 67.628L23.9011 62.756C23.9011 62.604 23.9531 62.48 24.0571 62.384C24.1611 62.288 24.2651 62.24 24.3691 62.24C24.6251 62.24 24.7731 62.348 24.8131 62.564C24.8451 62.78 24.8611 63.004 24.8611 63.236C25.2931 62.668 25.8331 62.384 26.4811 62.384C27.4731 62.384 27.9691 63.516 27.9691 65.78C27.9691 65.988 27.9691 66.304 27.9691 66.728C27.9691 67.144 27.9451 67.448 27.8971 67.64C27.8411 67.88 27.6691 68 27.3811 68C27.1891 68 27.0931 67.872 27.0931 67.616L27.1051 66.944C27.1051 66.016 27.0731 65.384 27.0091 65.048C26.9531 64.704 26.8971 64.432 26.8411 64.232C26.7051 63.8 26.4851 63.584 26.1811 63.584C25.7811 63.584 25.5011 63.728 25.3411 64.016C25.1651 64.328 25.0611 64.696 25.0291 65.12C24.9731 65.864 24.9451 66.652 24.9451 67.484C24.9451 67.644 24.8851 67.772 24.7651 67.868C24.6451 67.964 24.5011 68.012 24.3331 68.012C24.1331 68.012 24.0331 67.884 24.0331 67.628ZM32.7309 62.444C33.1549 62.444 33.5589 62.568 33.9429 62.816C34.3269 63.064 34.5189 63.372 34.5189 63.74C34.5189 64.1 34.3629 64.452 34.0509 64.796C33.7389 65.132 33.3229 65.336 32.8029 65.408C32.5789 65.44 32.2429 65.456 31.7949 65.456C31.8829 66.136 32.0549 66.584 32.3109 66.8C32.3909 66.888 32.4989 66.932 32.6349 66.932C33.1309 66.932 33.5469 66.776 33.8829 66.464C34.2189 66.144 34.4589 65.984 34.6029 65.984C34.6669 65.984 34.7629 66.044 34.8909 66.164C35.0189 66.284 35.0829 66.396 35.0829 66.5C35.0829 66.708 34.8309 67.008 34.3269 67.4C34.1029 67.584 33.8309 67.74 33.5109 67.868C33.1989 67.988 32.9069 68.048 32.6349 68.048C31.9389 68.048 31.4269 67.6 31.0989 66.704C30.8909 66.152 30.7869 65.544 30.7869 64.88C30.7869 64.216 30.9429 63.644 31.2549 63.164C31.5669 62.684 32.0589 62.444 32.7309 62.444ZM32.7909 63.272C32.4869 63.272 32.2269 63.444 32.0109 63.788C31.9309 63.908 31.8549 64.18 31.7829 64.604C32.9029 64.604 33.4629 64.328 33.4629 63.776C33.4629 63.44 33.2389 63.272 32.7909 63.272ZM37.6161 65.192C37.6161 64.656 37.7561 64.168 38.0361 63.728C38.3241 63.288 38.6881 62.96 39.1281 62.744C39.5681 62.52 39.9961 62.408 40.4121 62.408C40.8281 62.408 41.1601 62.46 41.4081 62.564C41.6641 62.66 41.7921 62.792 41.7921 62.96C41.7921 63.12 41.7441 63.284 41.6481 63.452C41.5601 63.612 41.4401 63.692 41.2881 63.692C41.2321 63.692 41.0761 63.648 40.8201 63.56C40.5721 63.464 40.4121 63.416 40.3401 63.416C39.8761 63.416 39.4801 63.588 39.1521 63.932C38.8241 64.268 38.6601 64.716 38.6601 65.276C38.6601 65.836 38.7481 66.256 38.9241 66.536C39.1081 66.808 39.4201 66.944 39.8601 66.944C40.0361 66.944 40.3361 66.844 40.7601 66.644C41.1921 66.436 41.4601 66.332 41.5641 66.332C41.6681 66.332 41.7521 66.364 41.8161 66.428C41.8801 66.492 41.9121 66.572 41.9121 66.668C41.9121 66.86 41.7881 67.064 41.5401 67.28C41.3001 67.488 41.0001 67.664 40.6401 67.808C40.2801 67.944 39.9561 68.012 39.6681 68.012C39.0281 68.012 38.5241 67.76 38.1561 67.256C37.7961 66.752 37.6161 66.064 37.6161 65.192ZM44.7365 62.396L45.3365 62.408C45.4725 62.408 45.5485 62.404 45.5645 62.396V59.936C45.5725 59.8 45.6405 59.684 45.7685 59.588C45.8965 59.492 46.0165 59.444 46.1285 59.444C46.2405 59.444 46.3285 59.48 46.3925 59.552C46.4645 59.624 46.4965 59.736 46.4885 59.888C46.4805 60.04 46.4765 60.872 46.4765 62.384L47.8805 62.336C48.1205 62.336 48.2405 62.476 48.2405 62.756C48.2405 62.964 48.1765 63.12 48.0485 63.224C47.9285 63.328 47.7965 63.384 47.6525 63.392C47.5165 63.4 47.3805 63.404 47.2445 63.404L46.5125 63.392C46.5125 63.72 46.5445 64.368 46.6085 65.336C46.6805 66.304 46.7365 66.932 46.7765 67.22C46.8165 67.5 46.8245 67.684 46.8005 67.772C46.7765 67.852 46.7325 67.908 46.6685 67.94C46.5645 67.988 46.4245 68.012 46.2485 68.012C46.0725 68.012 45.9685 67.916 45.9365 67.724C45.7765 66.676 45.6685 65.236 45.6125 63.404C45.5405 63.412 45.2645 63.416 44.7845 63.416C44.3045 63.416 44.0645 63.276 44.0645 62.996C44.0645 62.596 44.2885 62.396 44.7365 62.396ZM61.0271 60.008C61.2191 60.008 61.3431 60.148 61.3991 60.428C61.4391 61.732 61.4591 63.156 61.4591 64.7C61.4591 66.236 61.4511 67.124 61.4351 67.364C61.4191 67.604 61.3671 67.772 61.2791 67.868C61.1911 67.964 61.0311 68.012 60.7991 68.012C60.5911 68.012 60.4871 67.884 60.4871 67.628V64.916C60.4871 64.476 60.4791 64.024 60.4631 63.56C60.4471 63.096 60.4391 62.804 60.4391 62.684C60.1671 63.148 59.8071 63.532 59.3591 63.836C58.9111 64.132 58.4111 64.28 57.8591 64.28C57.3071 64.28 56.8431 64.052 56.4671 63.596C56.4511 64.084 56.4431 64.664 56.4431 65.336C56.4431 66 56.4471 66.7 56.4551 67.436C56.4551 67.636 56.3871 67.784 56.2511 67.88C56.1231 67.968 55.9751 68.012 55.8071 68.012C55.5911 68.012 55.4831 67.88 55.4831 67.616C55.4911 66.896 55.4951 65.756 55.4951 64.196V60.788C55.4951 60.652 55.5391 60.52 55.6271 60.392C55.7231 60.264 55.8311 60.2 55.9511 60.2C56.0791 60.2 56.1951 60.236 56.2991 60.308C56.4031 60.372 56.4591 60.472 56.4671 60.608C56.4991 61.496 56.6431 62.156 56.8991 62.588C57.1551 63.02 57.4591 63.236 57.8111 63.236C58.1631 63.236 58.4631 63.18 58.7111 63.068C58.9671 62.948 59.1751 62.812 59.3351 62.66C59.5031 62.508 59.6631 62.292 59.8151 62.012C60.0311 61.612 60.2391 61.12 60.4391 60.536C60.5591 60.184 60.7551 60.008 61.0271 60.008ZM65.2558 60.416C65.3998 60.416 65.5358 60.484 65.6638 60.62C65.7918 60.756 65.8558 60.9 65.8558 61.052C65.8558 61.196 65.7838 61.344 65.6398 61.496C65.5038 61.648 65.3598 61.724 65.2078 61.724C65.0558 61.724 64.9158 61.66 64.7878 61.532C64.6678 61.404 64.6078 61.24 64.6078 61.04C64.6078 60.656 64.8158 60.448 65.2318 60.416C65.2398 60.416 65.2478 60.416 65.2558 60.416ZM65.7598 66.704L65.7718 67.544C65.7718 67.696 65.7118 67.824 65.5918 67.928C65.4718 68.024 65.3438 68.072 65.2078 68.072C65.0078 68.072 64.9038 67.972 64.8958 67.772C64.7918 65.22 64.7398 63.808 64.7398 63.536C64.7398 63.264 64.7518 62.932 64.7758 62.54C64.7918 62.396 64.8838 62.324 65.0518 62.324C65.4758 62.324 65.7158 62.496 65.7718 62.84C65.7958 63.016 65.8078 63.156 65.8078 63.26L65.7598 64.016V66.704ZM69.6034 67.628L69.4714 62.756C69.4714 62.604 69.5234 62.48 69.6274 62.384C69.7314 62.288 69.8354 62.24 69.9394 62.24C70.1954 62.24 70.3434 62.348 70.3834 62.564C70.4154 62.78 70.4314 63.004 70.4314 63.236C70.8634 62.668 71.4034 62.384 72.0514 62.384C73.0434 62.384 73.5394 63.516 73.5394 65.78C73.5394 65.988 73.5394 66.304 73.5394 66.728C73.5394 67.144 73.5154 67.448 73.4674 67.64C73.4114 67.88 73.2394 68 72.9514 68C72.7594 68 72.6634 67.872 72.6634 67.616L72.6754 66.944C72.6754 66.016 72.6434 65.384 72.5794 65.048C72.5234 64.704 72.4674 64.432 72.4114 64.232C72.2754 63.8 72.0554 63.584 71.7514 63.584C71.3514 63.584 71.0714 63.728 70.9114 64.016C70.7354 64.328 70.6314 64.696 70.5994 65.12C70.5434 65.864 70.5154 66.652 70.5154 67.484C70.5154 67.644 70.4554 67.772 70.3354 67.868C70.2154 67.964 70.0714 68.012 69.9034 68.012C69.7034 68.012 69.6034 67.884 69.6034 67.628ZM79.4412 62.384L79.4292 60.068C79.4292 59.636 79.5652 59.42 79.8372 59.42C80.1172 59.42 80.2732 59.54 80.3052 59.78C80.3212 59.884 80.3412 60.512 80.3652 61.664C80.3892 62.816 80.4252 63.896 80.4732 64.904C80.5292 65.912 80.5572 66.852 80.5572 67.724C80.5572 67.964 80.3772 68.084 80.0172 68.084C79.7772 68.084 79.6572 67.916 79.6572 67.58C79.3132 67.852 78.9052 67.988 78.4332 67.988C77.8332 67.988 77.3452 67.764 76.9692 67.316C76.6012 66.868 76.4172 66.316 76.4172 65.66C76.4172 65.004 76.5492 64.392 76.8132 63.824C77.0852 63.248 77.5052 62.836 78.0732 62.588C78.4252 62.436 78.7652 62.36 79.0932 62.36C79.2132 62.36 79.3292 62.368 79.4412 62.384ZM79.5012 64.028C79.4452 63.852 79.3772 63.72 79.2972 63.632C79.2172 63.536 79.1292 63.48 79.0332 63.464C78.9452 63.44 78.8372 63.428 78.7092 63.428C78.5812 63.428 78.4252 63.476 78.2412 63.572C78.0572 63.668 77.9012 63.824 77.7732 64.04C77.5172 64.472 77.3892 64.928 77.3892 65.408C77.3892 65.88 77.4812 66.268 77.6652 66.572C77.8572 66.868 78.1252 67.016 78.4692 67.016C78.8212 67.016 79.0972 66.844 79.2972 66.5C79.4972 66.156 79.5972 65.716 79.5972 65.18C79.5972 64.58 79.5652 64.196 79.5012 64.028ZM83.753 67.124C83.801 66.876 83.933 66.752 84.149 66.752C84.365 66.752 84.509 66.864 84.581 67.088C84.581 67.616 84.497 68.092 84.329 68.516C84.273 68.668 84.189 68.796 84.077 68.9C83.973 69.004 83.861 69.056 83.741 69.056C83.477 69.056 83.345 68.916 83.345 68.636C83.345 68.548 83.357 68.464 83.381 68.384C83.629 68.104 83.753 67.684 83.753 67.124ZM98.1404 60.008C98.3324 60.008 98.4564 60.148 98.5124 60.428C98.5524 61.732 98.5724 63.156 98.5724 64.7C98.5724 66.236 98.5644 67.124 98.5484 67.364C98.5324 67.604 98.4804 67.772 98.3924 67.868C98.3044 67.964 98.1444 68.012 97.9124 68.012C97.7044 68.012 97.6004 67.884 97.6004 67.628V64.916C97.6004 64.476 97.5924 64.024 97.5764 63.56C97.5604 63.096 97.5524 62.804 97.5524 62.684C97.2804 63.148 96.9204 63.532 96.4724 63.836C96.0244 64.132 95.5244 64.28 94.9724 64.28C94.4204 64.28 93.9564 64.052 93.5804 63.596C93.5644 64.084 93.5564 64.664 93.5564 65.336C93.5564 66 93.5604 66.7 93.5684 67.436C93.5684 67.636 93.5004 67.784 93.3644 67.88C93.2364 67.968 93.0884 68.012 92.9204 68.012C92.7044 68.012 92.5964 67.88 92.5964 67.616C92.6044 66.896 92.6084 65.756 92.6084 64.196V60.788C92.6084 60.652 92.6524 60.52 92.7404 60.392C92.8364 60.264 92.9444 60.2 93.0644 60.2C93.1924 60.2 93.3084 60.236 93.4124 60.308C93.5164 60.372 93.5724 60.472 93.5804 60.608C93.6124 61.496 93.7564 62.156 94.0124 62.588C94.2684 63.02 94.5724 63.236 94.9244 63.236C95.2764 63.236 95.5764 63.18 95.8244 63.068C96.0804 62.948 96.2884 62.812 96.4484 62.66C96.6164 62.508 96.7764 62.292 96.9284 62.012C97.1444 61.612 97.3524 61.12 97.5524 60.536C97.6724 60.184 97.8684 60.008 98.1404 60.008ZM104.925 62.396C105.277 62.396 105.453 62.696 105.453 63.296C105.453 63.36 105.453 63.428 105.453 63.5L105.429 64.34C105.421 64.604 105.417 64.864 105.417 65.12L105.597 67.832C105.597 68.032 105.393 68.132 104.985 68.132C104.961 68.132 104.901 68.132 104.805 68.132C104.717 68.132 104.653 68.096 104.613 68.024C104.581 67.952 104.577 67.864 104.601 67.76C104.633 67.656 104.625 67.54 104.577 67.412C104.209 67.804 103.721 68 103.113 68C101.985 68 101.421 67.128 101.421 65.384C101.421 64.416 101.601 63.684 101.961 63.188C102.329 62.692 102.853 62.444 103.533 62.444C103.853 62.444 104.173 62.5 104.493 62.612C104.597 62.468 104.741 62.396 104.925 62.396ZM103.677 63.488C103.221 63.488 102.881 63.62 102.657 63.884C102.433 64.148 102.321 64.632 102.321 65.336C102.321 66.52 102.641 67.112 103.281 67.112C103.449 67.112 103.633 67.036 103.833 66.884C104.041 66.732 104.185 66.56 104.265 66.368C104.417 65.936 104.493 65.464 104.493 64.952C104.493 64.44 104.429 64.068 104.301 63.836C104.181 63.604 103.973 63.488 103.677 63.488ZM110.172 67.988C109.9 67.988 109.648 67.896 109.416 67.712C109.416 67.712 109.364 67.668 109.26 67.58V71.18C109.212 71.34 109.128 71.472 109.008 71.576C108.888 71.688 108.76 71.744 108.624 71.744C108.416 71.744 108.312 71.604 108.312 71.324V62.96C108.36 62.752 108.416 62.604 108.48 62.516C108.552 62.428 108.66 62.384 108.804 62.384C108.956 62.384 109.052 62.42 109.092 62.492C109.14 62.556 109.196 62.74 109.26 63.044C109.292 62.884 109.42 62.736 109.644 62.6C109.868 62.464 110.168 62.396 110.544 62.396C111.36 62.396 111.94 62.692 112.284 63.284C112.628 63.876 112.8 64.576 112.8 65.384C112.8 66.184 112.564 66.82 112.092 67.292C111.628 67.756 110.988 67.988 110.172 67.988ZM109.26 64.388V66.62C109.308 66.644 109.364 66.684 109.428 66.74C109.66 66.948 109.912 67.052 110.184 67.052C111.288 67.052 111.84 66.484 111.84 65.348C111.84 64.38 111.592 63.768 111.096 63.512C110.888 63.4 110.632 63.344 110.328 63.344C110.032 63.384 109.78 63.516 109.572 63.74C109.364 63.956 109.26 64.172 109.26 64.388ZM117.305 67.988C117.033 67.988 116.781 67.896 116.549 67.712C116.549 67.712 116.497 67.668 116.393 67.58V71.18C116.345 71.34 116.261 71.472 116.141 71.576C116.021 71.688 115.893 71.744 115.757 71.744C115.549 71.744 115.445 71.604 115.445 71.324V62.96C115.493 62.752 115.549 62.604 115.613 62.516C115.685 62.428 115.793 62.384 115.937 62.384C116.089 62.384 116.185 62.42 116.225 62.492C116.273 62.556 116.329 62.74 116.393 63.044C116.425 62.884 116.553 62.736 116.777 62.6C117.001 62.464 117.301 62.396 117.677 62.396C118.493 62.396 119.073 62.692 119.417 63.284C119.761 63.876 119.933 64.576 119.933 65.384C119.933 66.184 119.697 66.82 119.225 67.292C118.761 67.756 118.121 67.988 117.305 67.988ZM116.393 64.388V66.62C116.441 66.644 116.497 66.684 116.561 66.74C116.793 66.948 117.045 67.052 117.317 67.052C118.421 67.052 118.973 66.484 118.973 65.348C118.973 64.38 118.725 63.768 118.229 63.512C118.021 63.4 117.765 63.344 117.461 63.344C117.165 63.384 116.913 63.516 116.705 63.74C116.497 63.956 116.393 64.172 116.393 64.388ZM123.334 60.416C123.478 60.416 123.614 60.484 123.742 60.62C123.87 60.756 123.934 60.9 123.934 61.052C123.934 61.196 123.862 61.344 123.718 61.496C123.582 61.648 123.438 61.724 123.286 61.724C123.134 61.724 122.994 61.66 122.866 61.532C122.746 61.404 122.686 61.24 122.686 61.04C122.686 60.656 122.894 60.448 123.31 60.416C123.318 60.416 123.326 60.416 123.334 60.416ZM123.838 66.704L123.85 67.544C123.85 67.696 123.79 67.824 123.67 67.928C123.55 68.024 123.422 68.072 123.286 68.072C123.086 68.072 122.982 67.972 122.974 67.772C122.87 65.22 122.818 63.808 122.818 63.536C122.818 63.264 122.83 62.932 122.854 62.54C122.87 62.396 122.962 62.324 123.13 62.324C123.554 62.324 123.794 62.496 123.85 62.84C123.874 63.016 123.886 63.156 123.886 63.26L123.838 64.016V66.704ZM127.682 67.628L127.55 62.756C127.55 62.604 127.602 62.48 127.706 62.384C127.81 62.288 127.914 62.24 128.018 62.24C128.274 62.24 128.422 62.348 128.462 62.564C128.494 62.78 128.51 63.004 128.51 63.236C128.942 62.668 129.482 62.384 130.13 62.384C131.122 62.384 131.618 63.516 131.618 65.78C131.618 65.988 131.618 66.304 131.618 66.728C131.618 67.144 131.594 67.448 131.546 67.64C131.49 67.88 131.318 68 131.03 68C130.838 68 130.742 67.872 130.742 67.616L130.754 66.944C130.754 66.016 130.722 65.384 130.658 65.048C130.602 64.704 130.546 64.432 130.49 64.232C130.354 63.8 130.134 63.584 129.83 63.584C129.43 63.584 129.15 63.728 128.99 64.016C128.814 64.328 128.71 64.696 128.678 65.12C128.622 65.864 128.594 66.652 128.594 67.484C128.594 67.644 128.534 67.772 128.414 67.868C128.294 67.964 128.15 68.012 127.982 68.012C127.782 68.012 127.682 67.884 127.682 67.628ZM138.095 67.508C137.807 67.844 137.443 68.012 137.003 68.012C136.563 68.012 136.183 67.876 135.863 67.604C135.191 67.084 134.855 66.288 134.855 65.216C134.855 64.376 135.087 63.704 135.551 63.2C136.015 62.688 136.587 62.432 137.267 62.432C137.947 62.432 138.411 62.664 138.659 63.128C138.875 63.536 138.983 64.152 138.983 64.976L138.959 65.96C138.959 66.424 138.979 67.068 139.019 67.892C139.067 68.708 139.091 69.324 139.091 69.74C139.091 70.428 138.919 70.932 138.575 71.252C138.239 71.58 137.723 71.744 137.027 71.744C136.611 71.744 136.187 71.656 135.755 71.48C135.323 71.304 135.107 71.1 135.107 70.868C135.107 70.7 135.151 70.572 135.239 70.484C135.335 70.396 135.443 70.352 135.563 70.352C135.683 70.352 135.951 70.44 136.367 70.616C136.791 70.792 137.095 70.88 137.279 70.88C137.855 70.88 138.143 70.408 138.143 69.464C138.143 68.52 138.127 67.868 138.095 67.508ZM138.083 64.976C138.083 64.392 137.995 63.984 137.819 63.752C137.651 63.512 137.383 63.392 137.015 63.392C136.647 63.392 136.351 63.56 136.127 63.896C135.903 64.232 135.791 64.66 135.791 65.18C135.791 65.692 135.895 66.1 136.103 66.404C136.319 66.708 136.647 66.86 137.087 66.86C137.527 66.86 137.811 66.672 137.939 66.296C138.035 65.992 138.083 65.552 138.083 64.976ZM149.497 60.056C150.017 60.056 150.457 60.144 150.817 60.32C151.185 60.496 151.369 60.72 151.369 60.992C151.369 61.112 151.337 61.216 151.273 61.304C151.217 61.392 151.129 61.436 151.009 61.436C150.897 61.436 150.649 61.348 150.265 61.172C149.881 60.988 149.529 60.896 149.209 60.896C148.897 60.896 148.573 60.996 148.237 61.196C147.901 61.396 147.733 61.64 147.733 61.928C147.733 62.32 147.937 62.608 148.345 62.792C148.649 62.928 149.085 63.052 149.653 63.164C150.221 63.268 150.685 63.488 151.045 63.824C151.405 64.152 151.585 64.652 151.585 65.324C151.585 66.348 151.277 67.104 150.661 67.592C150.317 67.864 149.829 68 149.197 68C148.573 68 147.949 67.828 147.325 67.484C146.917 67.268 146.713 67.052 146.713 66.836C146.713 66.756 146.745 66.668 146.809 66.572C146.881 66.476 146.977 66.396 147.097 66.332C147.217 66.268 147.325 66.26 147.421 66.308C147.525 66.348 147.689 66.424 147.913 66.536C148.137 66.648 148.301 66.724 148.405 66.764C148.741 66.892 149.057 66.956 149.353 66.956C149.649 66.956 149.933 66.812 150.205 66.524C150.485 66.228 150.625 65.868 150.625 65.444C150.625 64.884 150.345 64.492 149.785 64.268C149.513 64.156 149.205 64.072 148.861 64.016C148.149 63.888 147.613 63.676 147.253 63.38C146.893 63.076 146.713 62.62 146.713 62.012C146.713 61.404 146.973 60.928 147.493 60.584C148.013 60.232 148.681 60.056 149.497 60.056ZM156.393 62.408C156.969 62.408 157.441 62.684 157.809 63.236C158.185 63.788 158.373 64.452 158.373 65.228C158.373 65.996 158.181 66.652 157.797 67.196C157.421 67.74 156.917 68.012 156.285 68.012C155.661 68.012 155.157 67.736 154.773 67.184C154.389 66.624 154.197 66.004 154.197 65.324C154.197 64.452 154.373 63.756 154.725 63.236C155.101 62.684 155.657 62.408 156.393 62.408ZM156.249 63.392C155.913 63.392 155.637 63.568 155.421 63.92C155.205 64.272 155.097 64.644 155.097 65.036C155.097 65.644 155.217 66.108 155.457 66.428C155.697 66.748 155.969 66.908 156.273 66.908C156.817 66.908 157.165 66.672 157.317 66.2C157.381 65.976 157.413 65.696 157.413 65.36C157.413 64.048 157.025 63.392 156.249 63.392ZM161.072 60.236C161.096 59.932 161.144 59.736 161.216 59.648C161.296 59.552 161.42 59.504 161.588 59.504C161.932 59.504 162.104 59.644 162.104 59.924C162.104 60.14 162.084 60.704 162.044 61.616C162.012 62.528 161.996 63.344 161.996 64.064C161.996 64.784 162.024 65.364 162.08 65.804C162.176 66.572 162.312 66.956 162.488 66.956C162.664 66.956 162.796 66.832 162.884 66.584C162.924 66.488 162.988 66.404 163.076 66.332C163.164 66.252 163.276 66.212 163.412 66.212C163.692 66.212 163.832 66.448 163.832 66.92C163.832 67.176 163.692 67.432 163.412 67.688C163.14 67.936 162.868 68.06 162.596 68.06C162.324 68.06 162.104 68.016 161.936 67.928C161.776 67.832 161.644 67.692 161.54 67.508C161.444 67.324 161.364 67.148 161.3 66.98C161.244 66.804 161.204 66.592 161.18 66.344C161.132 65.944 161.096 65.304 161.072 64.424C161.056 63.536 161.048 62.692 161.048 61.892C161.048 61.084 161.056 60.532 161.072 60.236ZM166.272 62.864C166.304 62.728 166.372 62.616 166.476 62.528C166.58 62.432 166.684 62.384 166.788 62.384C166.9 62.384 166.984 62.404 167.04 62.444C167.104 62.484 167.14 62.52 167.148 62.552C167.164 62.584 167.18 62.64 167.196 62.72C167.148 63.344 167.124 63.908 167.124 64.412C167.124 64.908 167.184 65.48 167.304 66.128C167.424 66.768 167.556 67.088 167.7 67.088C167.916 67.088 168.188 66.968 168.516 66.728C168.852 66.488 169.092 66.236 169.236 65.972C169.14 64.82 169.092 63.832 169.092 63.008C169.092 62.84 169.144 62.696 169.248 62.576C169.36 62.456 169.492 62.396 169.644 62.396C169.892 62.396 170.016 62.564 170.016 62.9C170.016 63.468 170.056 64.312 170.136 65.432C170.224 66.552 170.312 67.264 170.4 67.568C170.416 67.632 170.424 67.708 170.424 67.796C170.424 67.876 170.368 67.952 170.256 68.024C170.152 68.104 170.012 68.144 169.836 68.144C169.668 68.144 169.556 68.048 169.5 67.856C169.484 67.696 169.444 67.456 169.38 67.136C168.82 67.72 168.256 68.012 167.688 68.012C167.424 68.012 167.188 67.912 166.98 67.712C166.772 67.512 166.608 67.24 166.488 66.896C166.28 66.232 166.176 65.608 166.176 65.024C166.176 64.44 166.208 63.72 166.272 62.864ZM173.401 62.396L174.001 62.408C174.137 62.408 174.213 62.404 174.229 62.396V59.936C174.237 59.8 174.305 59.684 174.433 59.588C174.561 59.492 174.681 59.444 174.793 59.444C174.905 59.444 174.993 59.48 175.057 59.552C175.129 59.624 175.161 59.736 175.153 59.888C175.145 60.04 175.141 60.872 175.141 62.384L176.545 62.336C176.785 62.336 176.905 62.476 176.905 62.756C176.905 62.964 176.841 63.12 176.713 63.224C176.593 63.328 176.461 63.384 176.317 63.392C176.181 63.4 176.045 63.404 175.909 63.404L175.177 63.392C175.177 63.72 175.209 64.368 175.273 65.336C175.345 66.304 175.401 66.932 175.441 67.22C175.481 67.5 175.489 67.684 175.465 67.772C175.441 67.852 175.397 67.908 175.333 67.94C175.229 67.988 175.089 68.012 174.913 68.012C174.737 68.012 174.633 67.916 174.601 67.724C174.441 66.676 174.333 65.236 174.277 63.404C174.205 63.412 173.929 63.416 173.449 63.416C172.969 63.416 172.729 63.276 172.729 62.996C172.729 62.596 172.953 62.396 173.401 62.396ZM180.018 60.416C180.162 60.416 180.298 60.484 180.426 60.62C180.554 60.756 180.618 60.9 180.618 61.052C180.618 61.196 180.546 61.344 180.402 61.496C180.266 61.648 180.122 61.724 179.97 61.724C179.818 61.724 179.678 61.66 179.55 61.532C179.43 61.404 179.37 61.24 179.37 61.04C179.37 60.656 179.578 60.448 179.994 60.416C180.002 60.416 180.01 60.416 180.018 60.416ZM180.522 66.704L180.534 67.544C180.534 67.696 180.474 67.824 180.354 67.928C180.234 68.024 180.106 68.072 179.97 68.072C179.77 68.072 179.666 67.972 179.658 67.772C179.554 65.22 179.502 63.808 179.502 63.536C179.502 63.264 179.514 62.932 179.538 62.54C179.554 62.396 179.646 62.324 179.814 62.324C180.238 62.324 180.478 62.496 180.534 62.84C180.558 63.016 180.57 63.156 180.57 63.26L180.522 64.016V66.704ZM186.033 62.408C186.609 62.408 187.081 62.684 187.449 63.236C187.825 63.788 188.013 64.452 188.013 65.228C188.013 65.996 187.821 66.652 187.437 67.196C187.061 67.74 186.557 68.012 185.925 68.012C185.301 68.012 184.797 67.736 184.413 67.184C184.029 66.624 183.837 66.004 183.837 65.324C183.837 64.452 184.013 63.756 184.365 63.236C184.741 62.684 185.297 62.408 186.033 62.408ZM185.889 63.392C185.553 63.392 185.277 63.568 185.061 63.92C184.845 64.272 184.737 64.644 184.737 65.036C184.737 65.644 184.857 66.108 185.097 66.428C185.337 66.748 185.609 66.908 185.913 66.908C186.457 66.908 186.805 66.672 186.957 66.2C187.021 65.976 187.053 65.696 187.053 65.36C187.053 64.048 186.665 63.392 185.889 63.392ZM191.205 67.628L191.073 62.756C191.073 62.604 191.125 62.48 191.229 62.384C191.333 62.288 191.437 62.24 191.541 62.24C191.797 62.24 191.945 62.348 191.985 62.564C192.017 62.78 192.033 63.004 192.033 63.236C192.465 62.668 193.005 62.384 193.653 62.384C194.645 62.384 195.141 63.516 195.141 65.78C195.141 65.988 195.141 66.304 195.141 66.728C195.141 67.144 195.117 67.448 195.069 67.64C195.013 67.88 194.841 68 194.553 68C194.361 68 194.265 67.872 194.265 67.616L194.277 66.944C194.277 66.016 194.245 65.384 194.181 65.048C194.125 64.704 194.069 64.432 194.013 64.232C193.877 63.8 193.657 63.584 193.353 63.584C192.953 63.584 192.673 63.728 192.513 64.016C192.337 64.328 192.233 64.696 192.201 65.12C192.145 65.864 192.117 66.652 192.117 67.484C192.117 67.644 192.057 67.772 191.937 67.868C191.817 67.964 191.673 68.012 191.505 68.012C191.305 68.012 191.205 67.884 191.205 67.628Z" fill="black"/>
</svg>
